Simulation
nRows=44
nColumns=15
endheader
time  TH_x TH_y TH_z SC_y  SC_z  SC_x  AC_y  AC_z  AC_x  GH_y  GH_z  GH_yy  EL_x  PS_y
0.0  0.000000  0.000000  0.000000  8.47503289675409  -6.105688314431579  10.093222711975809  44.83592465092956  -13.518017361899352  -3.5516716426806196  177.56613607335314  110.20182268765595  -172.28826515936098  14.091357372103136  0.000000
0.015  0.000000  0.000000  0.000000  -12.49689460294729  -12.912708583160235  68.73568245451261  77.41718226832248  -8.074388081338686  12.190342396986836  111.9844650301577  65.54156281254595  -159.87495895931465  -5.2577250604758605  0.000000
0.03  0.000000  0.000000  0.000000  -42.75682512002431  -9.930094093019584  8.683211197281715  76.85536235364422  -49.399587862178365  75.80474889438506  157.10465172019266  21.674254631387537  -139.7252754224164  9.203457789024263  0.000000
0.045  0.000000  0.000000  0.000000  -72.40139880373067  -0.6877291755233785  22.768615472962153  -47.314277682706035  15.824037294132774  -4.172582053445173  -128.00425288829334  145.3044346216642  -151.98848481091076  31.136933379744253  0.000000
0.06  0.000000  0.000000  0.000000  11.517204508102978  12.887429328046379  -2.645654911455679  54.6921059933891  36.65487150106358  4.965800484001376  138.15567570258588  69.28924562059088  178.95789080452067  -26.38652716611704  0.000000
0.075  0.000000  0.000000  0.000000  47.539365031870524  -27.955431777744735  2.8682977001116607  49.97202866074943  nan  63.653339217148904  179.20964602502548  33.19761325153823  -115.02043347221321  -97.8328345586699  0.000000
0.09  0.000000  0.000000  0.000000  -14.08865889270871  -37.24419601656136  56.89281737460357  3.6014576913719543  -29.109209130325  -34.78467869302378  -53.38758115399572  29.4659741529626  -171.15027893680693  -29.320147088550847  0.000000
0.105  0.000000  0.000000  0.000000  -64.72161325821625  -11.295818348614569  61.052514707914106  113.68061319955561  -27.60389274077223  53.00835742751831  -42.23918130661391  13.627013496776495  67.1777713241723  54.049827976408906  0.000000
0.12  0.000000  0.000000  0.000000  -48.415532269930296  -10.46860575220688  24.030644356217746  25.229081723444246  -10.565756883902806  20.598336393897434  -131.3965503096314  33.618224816152726  111.30833828868434  57.805518221656165  0.000000
0.135  0.000000  0.000000  0.000000  -50.49740323797177  -31.392182398875214  88.38138320587939  55.74624788608103  -9.7369641552613  -68.25540871123377  -163.62452666595226  63.04198227177909  154.65173585411756  54.586992639868996  0.000000
0.15  0.000000  0.000000  0.000000  -57.010909295079855  -37.24464684671159  -6.568282065919029  28.000433463248072  -5.738808691462696  22.01304827406965  44.87895808540356  15.247936284590832  48.56720325591515  55.57700757501018  0.000000
0.16499999999999998  0.000000  0.000000  0.000000  -47.06997342609525  -16.39372913245464  11.874635249035965  33.12807385801473  -4.410234440945764  3.6428268617025004  -123.81886534143594  31.317367011747912  -155.2512113958428  42.64566583246696  0.000000
0.18  0.000000  0.000000  0.000000  -66.53773572908497  -19.305842600505517  97.87647226097053  44.86539458339821  -18.526863408404772  -29.494332273016596  174.10954027825892  60.27663455362689  123.08824423962498  12.398486485473004  0.000000
0.195  0.000000  0.000000  0.000000  -15.458139228391628  -8.496949062391401  17.878509182817268  7.572417599710545  -8.415677665307893  -10.363608574627248  -99.13838230870222  26.8577026889598  116.30941289740343  -40.46750997529395  0.000000
0.21  0.000000  0.000000  0.000000  -17.890535389094268  -10.230163833201308  72.55506370998947  47.2041396270027  -41.75548516998748  11.895244681572619  -96.01750440208522  60.55584432266893  -175.13721100689207  -58.1006818769346  0.000000
0.22499999999999998  0.000000  0.000000  0.000000  -27.714866859277016  -13.947797124048535  22.21240503838908  60.55954666824408  -33.952837974731594  34.16151330357457  161.48433003269213  8.789977635121554  -129.5492503928801  -22.581388600105043  0.000000
0.24  0.000000  0.000000  0.000000  -31.457410882263463  -28.010417486078257  76.59374798636564  20.718381629608526  -6.756174896346629  -57.92603174685385  -17.244711324437873  21.87212370721842  3.2557004438634967  12.2729475972631  0.000000
0.255  0.000000  0.000000  0.000000  -18.799013487446068  -1.9345293552407168  13.224213881087728  6.577932533095758  -20.10233927815257  -9.190942390010749  -34.636404343704  56.15117430733474  69.67882921549824  3.480417086736616  0.000000
0.27  0.000000  0.000000  0.000000  -58.6262492085495  6.6447334905670195  -4.296366594854327  31.82505156456371  -83.7172247036025  9.412390400147443  15.3079141367548  35.94260227528815  61.09654379939653  -23.572775258674582  0.000000
0.285  0.000000  0.000000  0.000000  -69.4845796686593  -29.389517870344925  54.4932172749315  51.28603651124981  -30.303287312726212  5.089053664321061  -143.6737902945902  54.886420814024  -167.26309993812893  -17.79999512300601  0.000000
0.3  0.000000  0.000000  0.000000  -28.182870582434404  -21.358671970710706  57.12542908911455  56.70886194792595  -39.03599221645033  18.22679198805914  -131.46640072668364  48.82114324195369  -162.68880089741066  -9.711869859761153  0.000000
0.315  0.000000  0.000000  0.000000  -19.231872307843307  -0.4698005683538169  29.074646267711692  28.308987748504578  -29.321858292810635  9.444304955208583  -141.27985528894814  14.023619798898622  -139.23801863424177  10.787053190123556  0.000000
0.32999999999999996  0.000000  0.000000  0.000000  -21.75361830493215  6.818426148410053  23.773064338426416  27.04911772546649  -32.84121742547739  10.175776913630898  -148.3594489827396  14.840491329821486  -129.6589541930066  25.157678602260344  0.000000
0.345  0.000000  0.000000  0.000000  -31.345179735075327  4.124621054606071  41.65107038246838  39.18025889072512  -29.964848832204122  13.403774602551984  -147.89315777858036  21.539214683521774  -135.0030389592315  24.760055433948125  0.000000
0.36  0.000000  0.000000  0.000000  -31.845699779838352  -0.6590715660337712  38.29881147979996  44.82576699976784  -32.19727189086119  15.049922079154069  -139.40411624632017  27.791212534182634  -133.51989185799604  25.107468701600393  0.000000
0.375  0.000000  0.000000  0.000000  -41.63432081273122  -4.653322445594406  38.72290874792394  24.267715153206016  -29.328901577223064  5.535591366448703  -112.796605379995  29.175744267685864  -141.73644644349585  34.2324877383617  0.000000
0.39  0.000000  0.000000  0.000000  -45.33511018918334  -2.3671499887479976  40.364629277490245  29.77268262524779  -33.431789622026955  6.3832756085563345  -133.11180559601007  34.97684980663423  -129.14483847167122  41.451184211684456  0.000000
0.40499999999999997  0.000000  0.000000  0.000000  -47.222076114889795  -1.613699585221151  45.09498615711005  56.10060203294937  -21.663402323338204  23.163458861316684  176.16389301739383  42.057339468039125  -118.0528372780123  36.744671187739655  0.000000
0.42  0.000000  0.000000  0.000000  -28.86951408394471  0.6307133079086821  24.29180808944137  58.5594333188318  -15.932621329318215  31.603726044002276  154.30765005426503  38.71495612684792  -118.97637515035292  32.2163396080492  0.000000
0.435  0.000000  0.000000  0.000000  -24.43691724805613  1.9389392726263344  20.061772340143616  36.542254698776574  -22.990184041866726  21.853753235844966  164.02999758780945  37.03293608215419  -120.44224367101046  33.39736328268786  0.000000
0.44999999999999996  0.000000  0.000000  0.000000  -35.738618445975504  -2.6398111458659397  31.026973510479362  40.00841118275656  -25.88344864645518  19.49625158405262  172.0662774158325  35.754637099086416  -123.07244000939237  31.26846470488372  0.000000
0.46499999999999997  0.000000  0.000000  0.000000  -39.765900703624204  -2.545109771217314  29.531649818009488  52.18786921970195  -21.43539329292531  30.033368354387004  161.69547802338153  27.397662499819283  -121.7001191858974  26.556023917544806  0.000000
0.48  0.000000  0.000000  0.000000  -27.8714212185572  2.814008695508712  14.597457782622385  48.23197805931659  -19.743045859720283  33.94401264048342  133.81454996439066  20.190681939346725  -103.26688555162688  25.92755464174162  0.000000
0.495  0.000000  0.000000  0.000000  -25.811445827550678  6.050646742192964  13.625763066243547  38.41832936321332  -22.397265031610793  27.643690122552073  124.80017806986584  19.830482837781762  -98.21859607208597  26.68520094208174  0.000000
0.51  0.000000  0.000000  0.000000  -33.7544267166962  8.859009660284968  23.336846748795107  38.31530280497755  -25.143755651883744  23.924733796533758  127.0949989589185  16.390300422593647  -104.63539689300474  24.81554791690834  0.000000
0.525  0.000000  0.000000  0.000000  -36.279408082572125  12.207544406411397  24.10911854088799  39.94036347129191  -26.5315388972904  25.70575379470899  102.5232068115443  12.498733770230944  -85.48457189195591  23.81175271282069  0.000000
0.54  0.000000  0.000000  0.000000  -32.14297601612169  14.408098250120094  17.963530300188648  38.26860964212247  -26.0290202162123  26.985884173799942  65.39948723760934  14.832410538155  -54.74036518458509  24.096741107926146  0.000000
0.5549999999999999  0.000000  0.000000  0.000000  -30.89899784128298  15.956539672046626  16.313763644306707  36.186841524794346  -25.4001311760471  26.752902749803233  49.55307607428039  17.194587558421638  -42.359286197270286  23.465190532242968  0.000000
0.57  0.000000  0.000000  0.000000  -32.43227178254118  16.603529976890723  17.372033886217192  35.92510031073562  -25.45837485732102  26.483332576589188  37.20852610950631  18.89907510276807  -30.91430433030512  22.76443865599944  0.000000
0.585  0.000000  0.000000  0.000000  -33.37953946259819  16.723383885508674  17.489734812379137  36.203604548633045  -25.633852176759998  26.54660002650106  29.159036022537503  21.80953868770523  -24.660040833182215  22.570763533545268  0.000000
0.6  0.000000  0.000000  0.000000  -33.67165614669172  16.56135183072443  17.45696518683715  36.403112521688406  -25.518602602208972  26.72602034693682  24.355396350673615  24.163260374358746  -22.72004294920454  22.30508098009914  0.000000
0.615  0.000000  0.000000  0.000000  -33.98092321731945  16.443685352048462  17.47070342105218  36.95104370157227  -25.26135073213594  27.20254006349219  20.28893820452126  26.242171499929793  -18.855738145136357  21.97267126318071  0.000000
0.63  0.000000  0.000000  0.000000  -34.44017196752687  16.294134803439416  17.690735917152022  37.350670570581485  -25.283353284281965  27.57535973010476  16.960695777725732  28.058272896559117  -12.451272930949145  21.5191512751244  0.000000
0.645  0.000000  0.000000  0.000000  -34.74154671597709  16.171887875570004  17.85544903193903  37.78213038370275  -25.299521703388663  27.83562444765168  15.769851597372895  29.31321974448454  -11.640480338550935  21.285393195676527  0.000000
